<svg width="65" height="65" viewBox="0 0 65 65" fill="none" xmlns="http://www.w3.org/2000/svg">
<path d="M65 32.5C65 50.4493 50.4493 65 32.5 65C14.5507 65 0 50.4493 0 32.5C0 14.5507 14.5507 0 32.5 0C50.4493 0 65 14.5507 65 32.5ZM5.01443 32.5C5.01443 47.6799 17.3201 59.9856 32.5 59.9856C47.6799 59.9856 59.9856 47.6799 59.9856 32.5C59.9856 17.3201 47.6799 5.01443 32.5 5.01443C17.3201 5.01443 5.01443 17.3201 5.01443 32.5Z" fill="white"/>
<rect x="30" y="8" width="4" height="8" rx="2" fill="white"/>
<rect x="22.0981" y="16.8981" width="2" height="6" rx="1" transform="rotate(144.721 22.0981 16.8981)" fill="white"/>
<rect x="43.6604" y="18.0962" width="2" height="6" rx="1" transform="rotate(-146.121 43.6604 18.0962)" fill="white"/>
<rect x="45.6766" y="53.235" width="2" height="6" rx="1" transform="rotate(150.752 45.6766 53.235)" fill="white"/>
<rect x="20.6169" y="54.0278" width="2" height="6" rx="1" transform="rotate(-143.944 20.6169 54.0278)" fill="white"/>
<rect x="17.1197" y="41.8557" width="2" height="6" rx="1" transform="rotate(57.7592 17.1197 41.8557)" fill="white"/>
<rect x="49.0343" y="23.8146" width="2" height="6" rx="1" transform="rotate(-121.141 49.0343 23.8146)" fill="white"/>
<rect x="17.1868" y="22.0374" width="2" height="6" rx="1" transform="rotate(120.414 17.1868 22.0374)" fill="white"/>
<rect x="53.0469" y="45.4821" width="2" height="6" rx="1" transform="rotate(125.475 53.0469 45.4821)" fill="white"/>
<rect x="49" y="35" width="4" height="8" rx="2" transform="rotate(-90 49 35)" fill="white"/>
<rect x="30" y="49" width="4" height="8" rx="2" fill="white"/>
<rect x="8" y="35" width="4" height="8" rx="2" transform="rotate(-90 8 35)" fill="white"/>
<circle cx="32" cy="33" r="2" fill="white"/>
<rect x="31" y="17" width="2" height="16" rx="1" fill="white"/>
<rect x="31" y="34" width="2" height="12" rx="1" transform="rotate(-90 31 34)" fill="white"/>
</svg>
